<svg id="Layer_1" data-name="Layer 1" xmlns="http://www.w3.org/2000/svg" viewBox="0 0 187 48.64"><defs><style>.cls-1{fill:#fff;}</style></defs><path class="cls-1" d="M137.32,43.53a1.46,1.46,0,0,0-1-.33h-1.76l-.34,4.35h.64l.14-1.74h1.17a1.76,1.76,0,0,0,1.15-.35,1.34,1.34,0,0,0,.41-1,1.1,1.1,0,0,0-.37-.89Zm-1.2,1.81H135l.12-1.59h1.13c.58,0,.87.25.87.74S136.78,45.34,136.12,45.34Z" transform="translate(-0.12 -0.06)"/><path class="cls-1" d="M140.29,44.69a1.48,1.48,0,0,0-.77-.18,1.46,1.46,0,0,0-.79.2,1.41,1.41,0,0,0-.53.58,1.91,1.91,0,0,0-.19.88,1.59,1.59,0,0,0,.18.77,1.14,1.14,0,0,0,.51.51,1.43,1.43,0,0,0,.76.18,1.49,1.49,0,0,0,.8-.2,1.29,1.29,0,0,0,.53-.58A1.87,1.87,0,0,0,141,46a1.63,1.63,0,0,0-.18-.78A1.25,1.25,0,0,0,140.29,44.69Zm-.17,2.13a.76.76,0,0,1-.65.32.8.8,0,0,1-.62-.24,1.06,1.06,0,0,1-.21-.71,1.55,1.55,0,0,1,.23-.86.73.73,0,0,1,.66-.32.78.78,0,0,1,.61.24,1.06,1.06,0,0,1,.21.71A1.55,1.55,0,0,1,140.12,46.82Z" transform="translate(-0.12 -0.06)"/><polygon class="cls-1" points="144.68 46.8 144.03 44.52 143.55 44.52 142.54 46.78 141.91 44.52 141.28 44.52 142.19 47.53 142.76 47.53 143.71 45.38 144.35 47.53 144.91 47.53 146.3 44.52 145.67 44.52 144.68 46.8"/><path class="cls-1" d="M149,44.84a1.26,1.26,0,0,0-.94-.35,1.55,1.55,0,0,0-.78.21,1.44,1.44,0,0,0-.53.59,2,2,0,0,0-.19.86,1.6,1.6,0,0,0,.19.77,1.22,1.22,0,0,0,.51.52,1.74,1.74,0,0,0,.78.17,2,2,0,0,0,.64-.1,1.41,1.41,0,0,0,.51-.28l-.16-.44a1.49,1.49,0,0,1-.95.34.88.88,0,0,1-.66-.25,1,1,0,0,1-.24-.71h2.14v-.31a1.46,1.46,0,0,0-.33-1Zm-1.77,1a1.1,1.1,0,0,1,.28-.64h0a.8.8,0,0,1,.6-.23.72.72,0,0,1,.56.22,1,1,0,0,1,.18.65Z" transform="translate(-0.12 -0.06)"/><path class="cls-1" d="M151.2,44.64a1,1,0,0,0-.42.37v-.46h-.6l-.24,3h.63l.13-1.67a.89.89,0,0,1,.24-.6,1.06,1.06,0,0,1,.63-.25H152v-.52l-.16,0A1.62,1.62,0,0,0,151.2,44.64Z" transform="translate(-0.12 -0.06)"/><path class="cls-1" d="M154.57,44.84a1.18,1.18,0,0,0-.93-.35,1.55,1.55,0,0,0-.78.21,1.44,1.44,0,0,0-.53.59,2,2,0,0,0-.19.86,1.47,1.47,0,0,0,.19.77,1.22,1.22,0,0,0,.51.52,1.74,1.74,0,0,0,.78.17,2,2,0,0,0,.64-.1,1.41,1.41,0,0,0,.51-.28l-.16-.44a1.52,1.52,0,0,1-1,.34.88.88,0,0,1-.66-.25,1,1,0,0,1-.24-.71h2.14v-.31a1.4,1.4,0,0,0-.34-1Zm-1.84,1a1.1,1.1,0,0,1,.28-.64.8.8,0,0,1,.6-.23.67.67,0,0,1,.53.22,1,1,0,0,1,.18.65Z" transform="translate(-0.12 -0.06)"/><path class="cls-1" d="M157.71,45.06a1.07,1.07,0,0,0-.38-.41,1.13,1.13,0,0,0-.6-.14,1.32,1.32,0,0,0-1.24.8,1.93,1.93,0,0,0-.18.88,1.69,1.69,0,0,0,.16.77,1.28,1.28,0,0,0,.45.5,1.22,1.22,0,0,0,.67.17,1.25,1.25,0,0,0,.57-.13.88.88,0,0,0,.4-.36v.45h.62l.34-4.35h-.66Zm-.25,1.77a.75.75,0,0,1-.65.31.74.74,0,0,1-.61-.25,1.07,1.07,0,0,1-.22-.73,1.32,1.32,0,0,1,.23-.84.76.76,0,0,1,.65-.31.77.77,0,0,1,.62.25,1.09,1.09,0,0,1,.21.72A1.49,1.49,0,0,1,157.46,46.83Z" transform="translate(-0.12 -0.06)"/><path class="cls-1" d="M163.14,44.67h0a1.29,1.29,0,0,0-.67-.18,1.21,1.21,0,0,0-.56.13,1.07,1.07,0,0,0-.41.35l.19-1.74h-.63l-.34,4.35h.62v-.51a.91.91,0,0,0,.39.41,1.13,1.13,0,0,0,.6.14,1.3,1.3,0,0,0,.74-.21,1.37,1.37,0,0,0,.51-.58,2.07,2.07,0,0,0,.18-.88,1.7,1.7,0,0,0-.17-.77A1,1,0,0,0,163.14,44.67Zm-.25,2.16v0a.76.76,0,0,1-.65.31.74.74,0,0,1-.61-.25,1,1,0,0,1-.22-.72,1.36,1.36,0,0,1,.24-.85l.06-.07a.85.85,0,0,1,1.19,0,1,1,0,0,1,.22.72A1.41,1.41,0,0,1,162.89,46.83Z" transform="translate(-0.12 -0.06)"/><polygon class="cls-1" points="165.39 46.83 164.62 44.52 163.99 44.52 165.02 47.45 164.41 48.65 165.04 48.65 167.15 44.52 166.52 44.52 165.39 46.83"/><path class="cls-1" d="M171.3,44.88a1,1,0,0,0-.88-.4,1.28,1.28,0,0,0-.76.22,1.43,1.43,0,0,0-.52.6,2.09,2.09,0,0,0-.18.89,1.69,1.69,0,0,0,.16.77,1.11,1.11,0,0,0,.45.53,1.36,1.36,0,0,0,.68.18,1.24,1.24,0,0,0,.5-.1.93.93,0,0,0,.37-.28v.33h1.11l.35-4.35-1.14,0Zm-.18,1.73v0l-.06.06a.58.58,0,0,1-.82-.06.82.82,0,0,1-.15-.53,1,1,0,0,1,.16-.6.58.58,0,0,1,.88,0,.88.88,0,0,1,.15.55A1,1,0,0,1,171.12,46.61Z" transform="translate(-0.12 -0.06)"/><path class="cls-1" d="M177,44.51a1.43,1.43,0,0,0-.58.12,1.25,1.25,0,0,0-.46.36.79.79,0,0,0-.34-.36,1,1,0,0,0-.51-.12,1.48,1.48,0,0,0-.51.09,1.12,1.12,0,0,0-.4.28v-.29H173.1l-.24,3H174l.12-1.62a1,1,0,0,1,.15-.5.4.4,0,0,1,.34-.15c.25,0,.34.18.34.52l-.14,1.75h1.09L176,46a1,1,0,0,1,.15-.5.42.42,0,0,1,.35-.15.28.28,0,0,1,.26.13.63.63,0,0,1,.07.38l-.14,1.76h1.1l.14-1.78v-.19a1.33,1.33,0,0,0-.24-.84A1,1,0,0,0,177,44.51Z" transform="translate(-0.12 -0.06)"/><path class="cls-1" d="M177.67,44.77h0l0,0Z" transform="translate(-0.12 -0.06)"/><path class="cls-1" d="M179.51,45.24a.76.76,0,0,1,.3,0,1.62,1.62,0,0,1,.49.08,2.08,2.08,0,0,1,.47.24l.34-.71a1.66,1.66,0,0,0-.59-.27,2.3,2.3,0,0,0-.69-.1,1.77,1.77,0,0,0-.72.13,1.14,1.14,0,0,0-.49.35.9.9,0,0,0-.17.53.7.7,0,0,0,.16.48,1.05,1.05,0,0,0,.39.27,5.05,5.05,0,0,0,.55.18l.4.13a.17.17,0,0,1,.12.16.14.14,0,0,1-.09.12.66.66,0,0,1-.28.05,2,2,0,0,1-.59-.09,2.2,2.2,0,0,1-.56-.26l-.34.75a2.91,2.91,0,0,0,.69.27v0a3.46,3.46,0,0,0,.78.09,1.69,1.69,0,0,0,1-.26.85.85,0,0,0,.37-.73.71.71,0,0,0-.16-.48,1.21,1.21,0,0,0-.39-.28,5.05,5.05,0,0,0-.55-.18,2.7,2.7,0,0,1-.4-.14c-.13,0-.13-.11-.13-.16A.11.11,0,0,1,179.51,45.24Z" transform="translate(-0.12 -0.06)"/><path class="cls-1" d="M182.31,44.83a.16.16,0,0,0-.11-.1.26.26,0,0,0,.17-.09.27.27,0,0,0,.06-.17.23.23,0,0,0-.08-.18.38.38,0,0,0-.23-.06h-.25l-.07.84H182v-.32h.14l.13.27h.2l-.12-.24Zm-.3-.24v-.24h.26v.08c0,.13-.05.13-.15.13Z" transform="translate(-0.12 -0.06)"/><path class="cls-1" d="M182.43,44a.74.74,0,0,0-.36-.09.78.78,0,0,0-.37.09.65.65,0,0,0-.26.26.74.74,0,0,0-.09.36.69.69,0,0,0,.1.37.75.75,0,0,0,.25.25.69.69,0,0,0,.37.1.65.65,0,0,0,.36-.1.69.69,0,0,0,.26-.25.78.78,0,0,0,.09-.37.74.74,0,0,0-.09-.36A.65.65,0,0,0,182.43,44Zm.16,1a.58.58,0,0,1-.22.22l.06-.08a.68.68,0,0,1-.31.08.72.72,0,0,1-.32-.08.58.58,0,0,1-.22-.22.72.72,0,0,1-.08-.32.68.68,0,0,1,.08-.31.58.58,0,0,1,.22-.22.61.61,0,0,1,.32-.08.6.6,0,0,1,.25.16.58.58,0,0,1,.22.22.68.68,0,0,1,.08.31A.72.72,0,0,1,182.59,45Z" transform="translate(-0.12 -0.06)"/><path class="cls-1" d="M110.06,3.49A2.89,2.89,0,0,0,107.75.12a2.75,2.75,0,0,0-.57,0,2.53,2.53,0,0,0-.55,0l0,0L99.84,1.4,75.94,29.82a1.54,1.54,0,0,1-2.35-2L95.12,2.29l-4.76.89L68,29.69a1.54,1.54,0,1,1-2.33-2L85.58,4.07l-4.8.9L70.12,17.69a1.55,1.55,0,1,1-2.36-2L76,5.86l-21.34,4a3.29,3.29,0,0,0-2,4.21,3,3,0,0,0,.23.52L69.44,44.08a3.87,3.87,0,0,0,5.26,1.5,2.26,2.26,0,0,0,.26-.16l35.1-41.73Z" transform="translate(-0.12 -0.06)"/><path class="cls-1" d="M24.23,10.69l-.31,0a2.37,2.37,0,0,0-1.82.85l0,0L.12,37.69V39.8a1.32,1.32,0,0,0,.85.3,1.37,1.37,0,0,0,1-.48L21.43,16.37a.29.29,0,0,1,.4-.07.28.28,0,0,1,.12.3l-3.2,22a1.34,1.34,0,0,0,1.17,1.49h.92A1.35,1.35,0,0,0,22.12,39l3.8-26A2,2,0,0,0,24.23,10.69Z" transform="translate(-0.12 -0.06)"/><path class="cls-1" d="M186.28,10.66h-14a1.32,1.32,0,0,0-1.31,1.12L167,38.63a1.33,1.33,0,0,0,1.12,1.5h14.18a1.31,1.31,0,0,0,1.3-1.12v-.08a1.33,1.33,0,0,0-1.12-1.5H171.31a.56.56,0,0,1-.56-.54s0-.06,0-.09l1.43-10a.56.56,0,0,1,.55-.47h11.58a1.32,1.32,0,0,0,1.31-1.17V25a1.32,1.32,0,0,0-1.16-1.46H173.32a.57.57,0,0,1-.55-.59v-.05l1.35-9.17a.55.55,0,0,1,.55-.47H186.2a1.34,1.34,0,0,0,.92-.33V11A1.29,1.29,0,0,0,186.28,10.66Z" transform="translate(-0.12 -0.06)"/><path class="cls-1" d="M165,15a.56.56,0,0,0-.09-.17,9.13,9.13,0,0,0-7.77-4.2c-6.7,0-11.56,6.21-13.07,12.19h0c-1.91,7.25.8,17.29,9.56,17.29A11.72,11.72,0,0,0,162.31,36a1.16,1.16,0,0,0-.06-1.64,1,1,0,0,0-.29-.2,1.18,1.18,0,0,0-1.38.31c-2.09,2.41-4.78,3.56-7.41,2.9-4.46-1.12-6.86-7.49-5.34-14.11s6.29-11,10.75-9.88a7.28,7.28,0,0,1,3.88,3,1.16,1.16,0,0,0,1.44.41l.5-.23A1.16,1.16,0,0,0,165,15Z" transform="translate(-0.12 -0.06)"/><path class="cls-1" d="M134.73,40.14a2.06,2.06,0,0,0,2-1.77l3.81-26a1.47,1.47,0,0,0-1.16-1.72,1.15,1.15,0,0,0-.26,0h-.45a1.47,1.47,0,0,0-1.46,1.26l-3.09,21.34a.34.34,0,0,1-.64.09l-9.74-21.48a2.05,2.05,0,0,0-1.88-1.21h-.44a2,2,0,0,0-2,1.71l-3.81,26.09a1.48,1.48,0,0,0,1.24,1.67h.8a1.48,1.48,0,0,0,1.47-1.26l3.08-21.42a.34.34,0,0,1,.64-.09L132.56,39a2,2,0,0,0,1.83,1.18Z" transform="translate(-0.12 -0.06)"/><path class="cls-1" d="M112.79,10.69l-.31,0a2.38,2.38,0,0,0-1.83.85l0,0L88.46,37.89A1.34,1.34,0,1,0,90.18,40a1.48,1.48,0,0,0,.28-.33L110,16.37a.29.29,0,0,1,.4-.07.28.28,0,0,1,.12.3l-3.21,22a1.33,1.33,0,0,0,1.12,1.52.75.75,0,0,0,.21,0h.71A1.35,1.35,0,0,0,110.68,39l3.8-26A2,2,0,0,0,112.79,10.69Z" transform="translate(-0.12 -0.06)"/><path class="cls-1" d="M38.93,10.79a11.1,11.1,0,0,0-2.23-.15H32.58A1.63,1.63,0,0,0,31,12L27,39a.92.92,0,0,0,.77,1h4.14A19.41,19.41,0,0,0,34.23,40c4.86-.4,10.68-2.07,13.63-7.41,1.91-3.43,2.47-9.08,1.67-12.91C48.26,13.27,43.4,11.28,38.93,10.79Zm7.94,14.42c-.25,6.4-4.68,12.21-14.08,12.21H31.52l-.05,0a.73.73,0,0,1-.7-.76s0,0,0-.08l3.34-22.72a.74.74,0,0,1,.75-.63C45.51,13.44,47.13,18.67,46.87,25.21Z" transform="translate(-0.12 -0.06)"/></svg>