<svg id="Layer_1" data-name="Layer 1" xmlns="http://www.w3.org/2000/svg" viewBox="0 0 1990.52 223.8"><defs><style>.cls-1{fill:#fff;}</style></defs><path class="cls-1" d="M159,81.6q0-30.3-35.4-30.3H78.9l-5,64.9h44.7q40.5,0,40.4-34.6m10.1-37.9c10,8.9,15,21.2,15,36.7q0,27.75-16.8,42.3t-46.9,14.5H72.1l-5.5,71.3H40.5L54.4,30.3h72c18.4,0,32.6,4.5,42.7,13.4" transform="translate(-40.5 -30.2)"/><path class="cls-1" d="M282.1,177q9.3-13.2,9.3-35.4c0-12.6-2.9-22.3-8.7-28.9s-14.1-10-24.9-10q-17.7,0-27,13.2t-9.3,35.4c0,12.8,2.9,22.4,8.7,29.1s14.2,9.9,25.1,9.9c11.7-.2,20.7-4.6,26.8-13.3m-58.3,26a51.07,51.07,0,0,1-20.7-21c-4.9-9.1-7.3-19.6-7.3-31.6,0-13.8,2.6-25.9,7.7-36.1a56.27,56.27,0,0,1,21.8-23.8c9.3-5.6,20.2-8.3,32.5-8.3,12.1,0,22.7,2.5,31.6,7.5a51.43,51.43,0,0,1,20.7,20.9c4.9,9.1,7.3,19.6,7.3,31.8,0,13.8-2.5,25.8-7.7,36a56,56,0,0,1-21.8,23.7c-9.3,5.6-20.3,8.4-32.7,8.4-12.1-.2-22.5-2.6-31.4-7.5" transform="translate(-40.5 -30.2)"/><polygon class="cls-1" points="474.5 55 500.2 55 443.4 178.3 420.4 178.3 394 90.4 355.1 178.3 331.9 178.3 294.5 55 320.3 55 346.3 147.7 387.5 55 407.2 55 433.8 148.2 474.5 55"/><path class="cls-1" d="M587.1,110c-6.1,6.1-10.1,14.9-11.8,26.6h65.2c.4-11.8-2.1-20.7-7.3-26.7s-12.5-9-21.8-9c-10-.1-18.2,3-24.3,9.1m61.5-13.4c9.3,9.6,13.9,23.6,13.9,42,0,4.2-.3,8.4-.7,12.6H574.3c.2,12.5,3.4,22.1,9.6,29s15.2,10.2,27,10.2a61.63,61.63,0,0,0,38.9-13.6l6.6,17.9c-5.2,4.8-12.1,8.5-20.7,11.4a81,81,0,0,1-26.3,4.3c-12.1,0-22.7-2.4-31.8-7.3a50.85,50.85,0,0,1-21.1-21c-5-9.1-7.5-19.6-7.5-31.6,0-13.3,2.6-25.2,7.8-35.5a57.45,57.45,0,0,1,21.7-24.1,60.35,60.35,0,0,1,32-8.6c16.1-.1,28.8,4.7,38.1,14.3" transform="translate(-40.5 -30.2)"/><path class="cls-1" d="M768.5,82.1v21.5l-16.7,1.8c-11.6,1.1-20.3,4.5-25.9,10.1s-8.9,13.8-9.8,24.5l-5.6,68.5H685l9.9-123.1h24.5l-1.5,19a42.34,42.34,0,0,1,17.2-15.3c7-3.4,15.7-5.6,25.8-6.5Z" transform="translate(-40.5 -30.2)"/><path class="cls-1" d="M810.8,110c-6.1,6.1-10.1,14.9-11.8,26.6h65.2c.3-11.8-2.1-20.7-7.3-26.7s-12.5-9-21.8-9c-10-.1-18.2,2.9-24.3,9.1m61.5-13.4c9.3,9.6,13.9,23.6,13.9,42,0,4.2-.3,8.4-.7,12.6H798c.2,12.5,3.4,22.1,9.6,29s15.2,10.2,27,10.2a61.63,61.63,0,0,0,38.9-13.6l6.5,17.9c-5.2,4.8-12.1,8.5-20.7,11.4a81,81,0,0,1-26.3,4.3c-12.1,0-22.7-2.4-31.8-7.3a50.85,50.85,0,0,1-21.1-21c-5-9.1-7.5-19.6-7.5-31.6,0-13.3,2.5-25.2,7.7-35.5A57.45,57.45,0,0,1,802,90.9a60.35,60.35,0,0,1,32-8.6c16.3-.1,29,4.7,38.3,14.3" transform="translate(-40.5 -30.2)"/><path class="cls-1" d="M992.9,177.3q9.6-12.75,9.6-34.8c0-13-3-22.9-8.8-29.7s-14.3-10.2-25.3-10.2c-11.3,0-20.2,4.2-26.5,12.7s-9.6,20-9.6,34.6q0,19.2,9,29.7c6,7,14.3,10.5,25.1,10.5,11.3,0,20.1-4.3,26.5-12.8m43.5-147-13.9,178.2H997.2l1.5-18.4A40.49,40.49,0,0,1,982.1,205a50.29,50.29,0,0,1-23.2,5.3,51.82,51.82,0,0,1-27.4-7.2,48.15,48.15,0,0,1-18.6-20.6c-4.4-8.9-6.6-19.4-6.6-31.4,0-13.7,2.4-25.7,7.3-36.2a58,58,0,0,1,20.6-24.3A54.75,54.75,0,0,1,964.6,82a49.62,49.62,0,0,1,24.3,5.8,39.42,39.42,0,0,1,15.9,16.7l5.8-74.3Z" transform="translate(-40.5 -30.2)"/><path class="cls-1" d="M1215.4,177.4c6.3-8.4,9.5-20,9.5-34.9,0-12.8-3-22.7-8.8-29.5s-14.3-10.4-25.2-10.4c-11.1,0-19.9,4.2-26.3,12.8s-9.6,20.1-9.6,34.7c0,13,2.9,22.9,8.8,29.7S1178.1,190,1189,190q16.95.15,26.4-12.6m10.4-87.9a48.92,48.92,0,0,1,18.6,20.9q6.6,13.5,6.6,31.5c0,13.5-2.4,25.4-7.3,35.8a56.69,56.69,0,0,1-20.6,24.1,54.86,54.86,0,0,1-30.4,8.6c-9.5,0-17.6-2-24.5-5.8a38.45,38.45,0,0,1-15.9-17l-1.8,21H1125l14.1-178.2h25.5l-5.8,71.8a43.13,43.13,0,0,1,16.8-14.6,49.37,49.37,0,0,1,22.9-5.3,49.94,49.94,0,0,1,27.3,7.2" transform="translate(-40.5 -30.2)"/><polygon class="cls-1" points="1328.5 55.2 1354.5 55.2 1267.8 223.8 1242 223.8 1267.1 175 1224.8 55.2 1250.9 55.2 1282.2 149.3 1328.5 55.2"/><path class="cls-1" d="M1551.7,168.3c4.4-6.1,6.6-14,6.6-23.8s-2-17.4-6.1-22.6-9.8-7.7-17.4-7.7-13.9,3-18.4,9.1-6.8,14.2-6.8,24.5c0,9.5,2.1,16.7,6.3,21.9s10.2,7.7,18,7.7a20.64,20.64,0,0,0,17.8-9.1m60-138-14.1,178.2H1553l1-13.6a38.77,38.77,0,0,1-15.3,11.6,50.21,50.21,0,0,1-20.6,4.1c-10.5,0-19.7-2.4-27.7-7.2a48.38,48.38,0,0,1-18.7-20.6c-4.5-8.9-6.7-19.5-6.7-31.8,0-13.5,2.5-25.6,7.6-36.2s12.1-18.9,21.2-24.8,19.4-8.8,31.2-8.8c15.7,0,27.7,5.4,36.1,16.2l5.6-67Z" transform="translate(-40.5 -30.2)"/><path class="cls-1" d="M1821.1,93c6.9,7.9,10.4,19.4,10.4,34.6,0,3.4-.1,6-.2,7.8l-5.8,73.1h-45l5.8-72c.5-6.8-.4-11.9-2.8-15.5s-6-5.4-10.9-5.4c-6.2,0-11,2.1-14.3,6.3s-5.2,10.9-5.9,20.2l-5.3,66.5h-45l5.8-71.5c1-14.3-3.6-21.5-13.6-21.5-6.1,0-10.8,2.1-14.2,6.3s-5.4,10.9-6.1,20.2l-5,66.5h-45l9.8-124.1h43.7l-1,11.9a44.43,44.43,0,0,1,16.2-11.5,57.75,57.75,0,0,1,21-3.7,43,43,0,0,1,21.1,5,34.82,34.82,0,0,1,13.8,14.4,52.65,52.65,0,0,1,18.9-14.5,56,56,0,0,1,23.5-4.9c13.2-.1,23.2,3.9,30.1,11.8" transform="translate(-40.5 -30.2)"/><path class="cls-1" d="M1871.7,206.9a129.69,129.69,0,0,1-28.6-11.2L1857,165a97.57,97.57,0,0,0,23,10.5,79.73,79.73,0,0,0,24.3,3.9c5.2,0,9-.7,11.5-2.1s3.7-3,3.7-5q0-4.05-5.1-6.3a132,132,0,0,0-16.4-5.6,173.76,173.76,0,0,1-22.5-7.3,43.89,43.89,0,0,1-15.7-11.2c-4.5-5-6.7-11.5-6.7-19.6a34.72,34.72,0,0,1,7.1-21.5c4.7-6.2,11.4-11.1,20-14.6s18.4-5.2,29.5-5.2a104.64,104.64,0,0,1,28.4,3.9,76.34,76.34,0,0,1,23.9,11l-13.7,29.3a81.71,81.71,0,0,0-19.6-9.8,65.21,65.21,0,0,0-20.1-3.4c-5.4,0-9.5.6-12.2,1.9s-4,3-4,5.2c0,2.7,1.7,4.9,5.2,6.6s9,3.5,16.6,5.6a176.43,176.43,0,0,1,22.6,7.6,43.89,43.89,0,0,1,15.7,11.2c4.5,5,6.7,11.5,6.7,19.6,0,12.8-5,22.8-15,29.9s-23.6,10.7-40.8,10.7a113,113,0,0,1-31.7-3.4" transform="translate(-40.5 -30.2)"/><path class="cls-1" d="M2003.5,84.4c4,0,6-1.8,6-5.3a4.07,4.07,0,0,0-1.5-3.5,8.18,8.18,0,0,0-4.6-1h-6.3l-.8,9.8Zm8.5,8.8,5.1,10.2h-8.3l-5.4-11.1a4.12,4.12,0,0,0-3.9-2.4H1996l-1.1,13.5h-7.5l2.7-34.7h14.3c4.1,0,7.2.9,9.3,2.6s3.1,4.1,3.1,7.4a9.9,9.9,0,0,1-2.5,7,11.37,11.37,0,0,1-6.8,3.6,6.52,6.52,0,0,1,4.5,3.9m2.4,14.7a23.83,23.83,0,0,0,9-9.1,26.67,26.67,0,0,0,0-25.7,23.83,23.83,0,0,0-9-9.1,26.47,26.47,0,0,0-25.6,0,23.16,23.16,0,0,0-9,9.1,26.86,26.86,0,0,0,0,25.8,23.83,23.83,0,0,0,9,9.1,26,26,0,0,0,12.8,3.3,23.63,23.63,0,0,0,12.8-3.4m2.2-47.4A28.85,28.85,0,0,1,2027.2,71a30.93,30.93,0,0,1,0,29.8,28.38,28.38,0,0,1-10.6,10.6,29.47,29.47,0,0,1-40.3-10.4v-.1a29.23,29.23,0,0,1-3.9-15,29.78,29.78,0,0,1,3.8-14.9,28.12,28.12,0,0,1,10.6-10.5,29.14,29.14,0,0,1,15-3.8,28.43,28.43,0,0,1,14.8,3.8" transform="translate(-40.5 -30.2)"/></svg>